<svg width="25" height="24" viewBox="0 0 25 24" fill="none" xmlns="http://www.w3.org/2000/svg">
<path d="M19.1231 9.83764L18.1952 17.6405C18.1415 18.0923 17.9224 18.5089 17.5791 18.8114C17.2355 19.1138 16.7921 19.2809 16.3326 19.2811H15.5272V17.0367C15.5272 16.5018 15.3124 15.9889 14.93 15.611C14.5477 15.2329 14.0294 15.0212 13.4891 15.0218H11.5005C10.9609 15.0218 10.4433 15.2342 10.0616 15.6121C9.67996 15.9897 9.46567 16.5022 9.46567 17.0366V19.281H8.65702C8.19743 19.2808 7.75402 19.1137 7.41053 18.8114C7.06723 18.5088 6.84807 18.0923 6.79445 17.6404L5.86648 9.83758C5.82371 9.47092 5.89237 9.09989 6.06367 8.77212C6.23474 8.44414 6.50083 8.1743 6.82747 7.9967L8.58398 7.03542H8.58422C8.8792 8.1931 9.6821 9.15919 10.7726 9.66913C11.8631 10.1788 13.1267 10.1788 14.2171 9.66913C15.3076 9.15918 16.1105 8.1931 16.4055 7.03542L18.162 7.9967H18.1622C18.4896 8.17362 18.7561 8.44347 18.9272 8.77148C19.0985 9.09947 19.167 9.47073 19.1233 9.83758L19.1231 9.83764ZM8.95866 4.12504C9.19978 3.69474 9.51765 3.31112 9.89681 2.99301L9.10135 1.828C8.97444 1.62934 8.75551 1.5062 8.51809 1.50002H5.16071C4.78874 1.52519 4.5 1.83143 4.5 2.20062C4.5 2.5698 4.78874 2.87579 5.16071 2.90098H8.14335L8.95866 4.12504ZM19.8292 1.5H16.472C16.2352 1.50046 16.0142 1.61719 15.882 1.81173L15.0865 2.98975L15.0868 2.98952C15.468 3.30881 15.7879 3.69334 16.0314 4.125L16.8567 2.90761H19.8393C20.2113 2.88243 20.5 2.57619 20.5 2.20701C20.5 1.83782 20.2113 1.53184 19.8393 1.50641L19.8292 1.5ZM13.4896 15.6784H11.501C11.1371 15.6784 10.788 15.8214 10.5307 16.0762C10.2734 16.3309 10.1289 16.6765 10.1289 17.0368V21.1416C10.1289 21.5018 10.2734 21.8474 10.5307 22.1022C10.788 22.357 11.1371 22.5 11.501 22.5H13.4896C13.8535 22.5 14.2026 22.357 14.4599 22.1022C14.7172 21.8475 14.8617 21.5019 14.8617 21.1416V17.0368C14.8617 16.6766 14.7172 16.3309 14.4599 16.0762C14.2026 15.8214 13.8535 15.6784 13.4896 15.6784ZM9.11828 6.05152C9.11828 5.1646 9.47406 4.31435 10.1073 3.68717C10.7407 3.06028 11.5998 2.70778 12.4954 2.70778C13.391 2.70778 14.25 3.06026 14.8835 3.68717C15.5167 4.31429 15.8725 5.1646 15.8725 6.05152C15.8725 6.93821 15.5167 7.78869 14.8835 8.41588C14.25 9.04277 13.391 9.39503 12.4954 9.39503C11.6 9.39411 10.7414 9.04164 10.1084 8.41476C9.47526 7.78811 9.11899 6.93804 9.11834 6.05158L9.11828 6.05152ZM10.9277 6.05152C10.9277 6.46305 11.0928 6.85788 11.3868 7.14897C11.6809 7.43988 12.0797 7.60353 12.4953 7.60353C12.9109 7.60353 13.3098 7.43988 13.6038 7.14897C13.8978 6.85783 14.0629 6.46302 14.0629 6.05152C14.0629 5.63977 13.8978 5.24516 13.6038 4.95407C13.3097 4.66298 12.9109 4.49952 12.4953 4.49952C12.0792 4.4986 11.6799 4.66179 11.3859 4.95316C11.0916 5.24429 10.9268 5.63958 10.9277 6.05155L10.9277 6.05152Z" fill="#94A196"/>
</svg>
