<svg width="25" height="24" viewBox="0 0 25 24" fill="none" xmlns="http://www.w3.org/2000/svg">
<path d="M4.12821 18.1749H8.1908V19.4857C8.19145 19.7528 8.0866 20.0095 7.8987 20.1996C7.71057 20.3896 7.4551 20.4976 7.18764 20.5H5.14382C4.87439 20.5 4.61608 20.3931 4.42579 20.203C4.23527 20.0128 4.12824 19.7548 4.12824 19.4857L4.12821 18.1749ZM16.8002 19.4857C16.7995 19.7546 16.9057 20.0125 17.0958 20.2028C17.2856 20.3931 17.5437 20.5 17.8127 20.5H19.8535C20.1227 20.5 20.381 20.3931 20.5715 20.203C20.762 20.0127 20.8691 19.7548 20.8691 19.4857V18.1748H16.8065L16.8002 19.4857ZM22.5 12.8724V16.8299C22.5009 17.0215 22.425 17.2052 22.2894 17.3407C22.154 17.4761 21.9699 17.5518 21.7782 17.551H3.22175C3.03015 17.5518 2.84595 17.4761 2.71058 17.3407C2.57499 17.2052 2.49913 17.0215 2.50001 16.8299V12.6759C2.50001 12.2607 2.5872 11.8504 2.75614 11.4711L3.66864 9.4081L5.83434 3.93693C5.93527 3.67873 6.18181 3.50631 6.45951 3.5H18.4373C18.715 3.50631 18.9615 3.67873 19.0624 3.93693L21.2499 9.39567L22.2531 11.6679V11.6677C22.4185 12.0478 22.5027 12.4582 22.4999 12.8724L22.5 12.8724ZM5.87153 8.14715H19.0374C19.1195 8.14715 19.1965 8.10622 19.2423 8.03786C19.288 7.96972 19.2968 7.88308 19.2654 7.8071L18.1248 4.90136C18.0884 4.80535 17.9962 4.742 17.8936 4.74222H7.02463C6.92196 4.742 6.82997 4.80535 6.79335 4.90136L5.64022 7.8071C5.61057 7.88351 5.62038 7.96994 5.66638 8.03786C5.71259 8.10579 5.78932 8.14671 5.8715 8.14715H5.87153ZM8.26217 14.4109V14.4112C8.26304 13.9871 8.09519 13.5802 7.79546 13.28C7.49573 12.9795 7.08876 12.8106 6.66432 12.8099C6.23968 12.8095 5.8325 12.9773 5.53189 13.2769C5.23151 13.5765 5.06256 13.9829 5.06213 14.407C5.06191 14.8309 5.23041 15.2375 5.53036 15.5375C5.83052 15.8375 6.23773 16.006 6.66212 16.006C7.0861 16.006 7.49243 15.838 7.79237 15.5391C8.09254 15.2399 8.26147 14.8343 8.26213 14.4111L8.26217 14.4109ZM19.9341 14.4109V14.4112C19.935 13.9869 19.7669 13.58 19.467 13.2795C19.167 12.9793 18.7598 12.8104 18.3352 12.8099C17.9106 12.8097 17.5032 12.9782 17.2028 13.278C16.9024 13.578 16.7339 13.9849 16.7341 14.409C16.7346 14.8333 16.9035 15.2399 17.2043 15.5393C17.5049 15.8388 17.9125 16.0067 18.3374 16.006C18.761 16.006 19.1671 15.838 19.4666 15.5388C19.7661 15.2397 19.9341 14.8341 19.9341 14.4112L19.9341 14.4109Z" fill="#94A196"/>
</svg>
