<svg width="25" height="24" viewBox="0 0 25 24" fill="none" xmlns="http://www.w3.org/2000/svg">
<path d="M21.5 6.63389V10.6727C21.4992 10.8235 21.4421 10.9678 21.3413 11.0732C21.2402 11.1788 21.1041 11.2368 20.9628 11.2343H19.7141V6.06916H20.9628C21.1045 6.06685 21.2412 6.1253 21.3423 6.23129C21.4431 6.33749 21.5 6.48244 21.5 6.63389L21.5 6.63389ZM3.5 6.63389V10.6727C3.5 10.9829 3.73542 11.2343 4.02599 11.2343H5.33671L5.33652 6.06917H4.02599C3.73505 6.07085 3.5 6.32326 3.5 6.63389H3.5ZM7.30245 20.0991C7.30245 20.3381 7.39132 20.5672 7.54964 20.7361C7.70777 20.9051 7.92239 21 8.14624 21H9.63411C9.85776 21 10.0724 20.9051 10.2307 20.7361C10.3888 20.5672 10.4777 20.3381 10.4777 20.0991V18.8709H7.30244L7.30245 20.0991ZM15.1548 20.0991C15.1548 20.3381 15.2437 20.5672 15.402 20.7361C15.5602 20.9051 15.7748 21 15.9986 21H17.4751C17.699 21 17.9136 20.9051 18.0717 20.7361C18.23 20.5672 18.3189 20.3381 18.3189 20.0991V18.8709H15.1548L15.1548 20.0991ZM19.1515 3.88295V13.3032H5.89861V3.88295C5.89861 3.64876 5.98572 3.4242 6.1409 3.25849C6.29588 3.09301 6.50619 3 6.72555 3H18.3246C18.5439 3 18.7542 3.09301 18.9092 3.25849C19.0644 3.42418 19.1515 3.64873 19.1515 3.88295H19.1515ZM17.4639 5.3484C17.4623 5.04718 17.2342 4.80336 16.9521 4.80191H8.09824C7.81612 4.80338 7.58797 5.0472 7.58641 5.3484V10.9581C7.58798 11.2589 7.81673 11.5017 8.09824 11.5017H16.9521C17.2336 11.5017 17.4624 11.2589 17.4639 10.9581V5.3484ZM5.89901 13.9037H19.1519V17.3962C19.1511 17.6298 19.0636 17.8537 18.9086 18.0185C18.7537 18.1834 18.5437 18.276 18.325 18.276H6.72595C6.5072 18.276 6.29728 18.1834 6.1423 18.0185C5.98732 17.8537 5.89982 17.6297 5.89903 17.3962L5.89901 13.9037ZM14.9864 16.0868C14.9864 16.3656 15.0902 16.6329 15.2748 16.83C15.4594 17.0271 15.7097 17.1379 15.9708 17.1379C16.2318 17.1379 16.4823 17.0271 16.6669 16.83C16.8515 16.6329 16.9551 16.3656 16.9551 16.0868C16.9551 15.8082 16.8515 15.5407 16.6669 15.3436C16.4823 15.1465 16.2317 15.0359 15.9708 15.0359C15.7097 15.0359 15.4594 15.1465 15.2748 15.3436C15.0902 15.5407 14.9864 15.8082 14.9864 16.0868ZM8.09578 16.0868C8.09578 16.3656 8.19936 16.6329 8.38397 16.83C8.56858 17.0271 8.81911 17.1379 9.08001 17.1379C9.34114 17.1379 9.59149 17.0271 9.77606 16.83C9.96067 16.6329 10.0644 16.3656 10.0644 16.0868C10.0644 15.8082 9.96067 15.5407 9.77606 15.3436C9.59145 15.1465 9.34111 15.0359 9.08001 15.0359C8.81909 15.0359 8.56854 15.1465 8.38397 15.3436C8.19936 15.5407 8.09578 15.8082 8.09578 16.0868Z" fill="#94A196"/>
</svg>
