<svg width="25" height="24" viewBox="0 0 25 24" fill="none" xmlns="http://www.w3.org/2000/svg">
<path d="M18.0658 18.2719C18.1874 18.2717 18.3088 18.2615 18.4285 18.2411L20 21H17.9456L17.4428 20.1197H7.55719L7.05437 21H5L6.57146 18.2409V18.2411C6.69124 18.2613 6.81261 18.2717 6.93418 18.2719H8.60845L8.21424 18.9442H16.7856L16.3914 18.2719L18.0658 18.2719ZM19.6743 12.6916L5.326 12.6918V4.58339C5.326 4.16336 5.4956 3.76059 5.79713 3.46378C6.09887 3.16675 6.50805 3 6.93452 3H18.0773C18.5038 3 18.9129 3.16675 19.2147 3.46378C19.5164 3.7606 19.6858 4.16338 19.6858 4.58339L19.6743 12.6916ZM14.18 4.68715C14.18 4.60338 14.1108 4.53531 14.0255 4.53531H10.9743C10.889 4.53531 10.8198 4.60339 10.8198 4.68715V5.10914C10.8198 5.19291 10.889 5.26098 10.9743 5.26098H14.0255C14.1108 5.26098 14.18 5.1929 14.18 5.10914V4.68715ZM19.6743 13.2541V16.1284C19.6743 16.5482 19.5047 16.9506 19.203 17.247C18.9012 17.5436 18.4921 17.7098 18.0658 17.709H6.92306C6.49676 17.7098 6.08761 17.5436 5.78587 17.247C5.48414 16.9505 5.31454 16.5482 5.31454 16.1284V13.2541H19.6743ZM9.67442 15.4816C9.67442 15.1965 9.55923 14.9231 9.35435 14.7216C9.14948 14.5201 8.87166 14.4069 8.58207 14.4073C8.29229 14.4075 8.01467 14.5211 7.81019 14.723C7.60571 14.9248 7.49091 15.1983 7.49151 15.4836C7.49211 15.7686 7.6077 16.0417 7.81278 16.243C8.01805 16.4441 8.29607 16.5567 8.58583 16.5559C8.87581 16.5567 9.15404 16.4439 9.35929 16.2422C9.56457 16.0407 9.67996 15.7671 9.67996 15.4816L9.67442 15.4816ZM17.4942 15.4816H17.494C17.494 15.1965 17.379 14.9231 17.1742 14.7216C16.9693 14.5201 16.6913 14.4069 16.4017 14.4073C16.1121 14.4075 15.8345 14.5211 15.63 14.723C15.4253 14.9248 15.3107 15.1983 15.3113 15.4836C15.3117 15.7686 15.4273 16.0417 15.6326 16.243C15.8379 16.4441 16.1159 16.5567 16.4054 16.5559C16.6954 16.5567 16.9739 16.4439 17.1791 16.2422C17.3844 16.0407 17.4998 15.7671 17.4998 15.4816L17.4942 15.4816Z" fill="#94A196"/>
</svg>
